<?xml version="1.0" encoding="utf-8"?>
<svg viewBox="0 0 444 501" width="444px" height="501px" xmlns="http://www.w3.org/2000/svg">
  <path d="M 202.022 5.714 C 215.34 -1.975 228.66 -1.975 241.978 5.714 L 424.002 110.806 C 437.32 118.495 443.98 130.03 443.98 145.409 L 443.98 355.591 C 443.98 370.97 437.32 382.505 424.002 390.194 L 241.978 495.286 C 228.66 502.975 215.34 502.975 202.022 495.286 L 19.998 390.194 C 6.68 382.505 0.02 370.97 0.02 355.591 L 0.02 145.409 C 0.02 130.03 6.68 118.495 19.998 110.806 L 202.022 5.714 Z M 201.145 184.937 C 177.237 171.134 165.283 178.035 165.283 205.641 L 165.283 295.36 C 165.283 322.965 177.237 329.867 201.145 316.065 L 278.843 271.205 C 302.751 257.402 302.751 243.599 278.843 229.796 L 201.145 184.937 Z" style="fill: rgb(144, 179, 179);"/>
</svg>